<?xml version="1.0" standalone="no"?><!DOCTYPE svg PUBLIC "-//W3C//DTD SVG 1.1//EN" "http://www.w3.org/Graphics/SVG/1.1/DTD/svg11.dtd"><svg t="1729741372800" class="icon" viewBox="0 0 1024 1024" version="1.1" xmlns="http://www.w3.org/2000/svg" p-id="11694" xmlns:xlink="http://www.w3.org/1999/xlink" width="16" height="16"><path d="M318.7712 480.256a268.1856 268.1856 0 0 1 68.1984 8.9088c21.8112-110.4896 130.8672-194.56 262.0416-194.56h10.24C630.272 190.8736 522.24 113.664 393.5232 113.664c-151.1424 0-273.7152 106.0864-273.7152 236.9536A218.5216 218.5216 0 0 0 194.56 512a260.096 260.096 0 0 1 124.2112-31.744zM501.76 231.0144A35.328 35.328 0 1 1 466.3296 266.24 35.328 35.328 0 0 1 501.76 231.0144z m-211.8656 0A35.328 35.328 0 1 1 254.5664 266.24a35.328 35.328 0 0 1 35.328-35.328zM880.0256 529.408c0-110.3872-103.424-199.8848-231.0144-199.8848-116.3264 0-212.2752 74.4448-228.352 171.2128 80.6912 33.792 136.6016 106.1888 136.6016 190.0544a198.144 198.144 0 0 1-1.2288 21.504 261.5296 261.5296 0 0 0 178.8928 2.3552l78.1312 30.72-10.24-68.4032a188.2112 188.2112 0 0 0 77.2096-147.5584z m-314.4704-43.1104a32.9728 32.9728 0 1 1 32.9728-32.9728 32.9728 32.9728 0 0 1-32.9728 32.9728z m166.8096 0a32.9728 32.9728 0 1 1 32.9728-32.9728 32.9728 32.9728 0 0 1-32.9728 32.9728z m-413.5936 24.8832c-114.5856 0-207.4624 80.384-207.4624 179.5072a168.8576 168.8576 0 0 0 69.0176 133.12l-8.9088 61.44 70.2464-27.8528A235.52 235.52 0 0 0 318.7712 870.4c114.5856 0 207.4624-80.384 207.4624-179.5072s-92.8768-179.712-207.4624-179.712z m-74.9568 140.9024a29.5936 29.5936 0 1 1 29.5936-29.5936 29.5936 29.5936 0 0 1-29.5936 29.5936z m149.9136 0a29.5936 29.5936 0 1 1 29.5936-29.5936 29.5936 29.5936 0 0 1-29.5936 29.5936z m0 0" p-id="11695" fill="#555555"></path></svg>