<?xml version="1.0" standalone="no"?><!DOCTYPE svg PUBLIC "-//W3C//DTD SVG 1.1//EN" "http://www.w3.org/Graphics/SVG/1.1/DTD/svg11.dtd"><svg t="1729826778374" class="icon" viewBox="0 0 1024 1024" version="1.1" xmlns="http://www.w3.org/2000/svg" p-id="20180" xmlns:xlink="http://www.w3.org/1999/xlink" width="256" height="256"><path d="M152.12 385.707C170.44 212.423 337.125 72.704 510.977 84.309c172.373 4.893 321.991 154.738 330.638 326.315 21.163 8.988 44.374 15.132 62.35 30.265 9.216 49.038 4.21 100.01 3.528 149.845 2.389 32.427-51.314 43.122-61.668 11.72-5.575-40.62-1.707-81.92-3.072-122.767-23.78-10.354-63.26-15.36-62.578-48.924-3.982-50.518-15.018-101.263-42.211-144.726-52.338-89.657-156.786-145.863-260.551-137.898-100.466 4.892-194.447 69.177-237.34 159.857-22.074 43.122-28.787 91.592-31.404 139.378-10.012 9.444-20.138 18.887-30.378 28.217-0.57 40.96 3.3 82.148-1.707 122.88-4.892 29.469-51.996 31.061-59.05 1.934-4.78-44.487-2.39-89.543-1.935-134.257-3.3-33.11 40.619-46.08 36.523-80.441z" p-id="20181" fill="#555555"></path><path d="M307.769 330.41c57.458-88.632 180.224-103.196 274.09-73.841 71.794 21.39 121.515 90.34 128.91 163.499 2.504 38.343 17.181 92.16-28.102 111.388-42.553-16.498-27.648-64.512-33.451-99.556-3.64-56.433-44.032-110.364-101.604-119.808-56.888-10.808-124.472-9.443-169.87 31.403-36.295 33.792-42.894 86.585-41.87 133.689 1.365 60.871 3.527 124.7 30.72 180.452 13.767 29.923 43.577 46.99 62.692 72.704 5.46 29.24 10.808 64.398-7.055 90.34-60.416 20.252-128.682 17.862-184.32 53.133-26.055 11.15-28.444 42.44-45.397 61.895-19.797 9.103-42.098-2.958-47.218-23.665-1.593-45.967 34.93-81.807 73.5-100.466 48.015-26.738 103.88-30.265 155.876-45.625-46.99-42.325-82.716-98.076-91.25-161.678-12.515-90.454-25.486-191.83 24.349-273.863z" p-id="20182" fill="#555555"></path><path d="M522.354 589.596c81.806-2.503 183.182 15.133 242.346-56.206 20.594-19.228 39.368 9.558 51.542 23.552-17.75 37.66-49.266 67.812-89.998 78.848-68.608 21.618-142.45 21.618-213.22 13.198-27.99-12.288-22.073-58.254 9.33-59.392z m34.02 172.943c-1.707-21.618 6.712-56.775 35.384-51.087 30.265 0.57 28.558 35.954 30.834 57.686 72.249 15.018 156.444 25.714 205.141 87.836 17.977 22.756 29.127 72.932-8.76 80.441-33.565 8.192-34.02-35.84-51.542-53.134-53.475-40.391-122.88-44.942-186.14-58.14-28.559-5.576-24.349-41.757-24.918-63.602z" p-id="20183" fill="#555555"></path></svg>