<?xml version="1.0" standalone="no"?><!DOCTYPE svg PUBLIC "-//W3C//DTD SVG 1.1//EN" "http://www.w3.org/Graphics/SVG/1.1/DTD/svg11.dtd"><svg t="1730002487606" class="icon" viewBox="0 0 1024 1024" version="1.1" xmlns="http://www.w3.org/2000/svg" p-id="4639" width="16" height="16" xmlns:xlink="http://www.w3.org/1999/xlink"><path d="M449.828571 761.246476a56.07619 56.07619 0 0 1-67.437714 8.801524 61.586286 61.586286 0 0 1-11.142095-11.727238l-228.742095-228.717714a52.102095 52.102095 0 0 1 0-75.580953 55.661714 55.661714 0 0 1 78.579809 2.925715l189.44 189.44 357.766095-357.839239a55.661714 55.661714 0 0 1 78.57981-2.925714 52.102095 52.102095 0 0 1 0 75.580953L449.828571 761.246476zM512 0a512 512 0 1 0 512 512A512 512 0 0 0 512 0z" fill="#0DCC6D" p-id="4640"></path></svg>