<?xml version="1.0" standalone="no"?><!DOCTYPE svg PUBLIC "-//W3C//DTD SVG 1.1//EN" "http://www.w3.org/Graphics/SVG/1.1/DTD/svg11.dtd"><svg t="1730036731042" class="icon" viewBox="0 0 1024 1024" version="1.1" xmlns="http://www.w3.org/2000/svg" p-id="7123" xmlns:xlink="http://www.w3.org/1999/xlink" width="256" height="256"><path d="M894.976 853.504l-7.168-34.816-3.584-15.872c-31.232-124.416-121.344-222.208-236.544-265.728C719.872 491.52 768 411.648 768 320c0-141.312-114.688-256-256-256s-256 114.688-256 256c0 91.648 48.128 171.52 120.32 217.088-119.808 45.568-212.48 150.016-241.152 281.6l-7.168 34.816-0.512 6.144c-0.512 16.896 10.752 31.744 27.648 35.328 18.944 4.096 37.376-8.192 41.472-27.136l7.168-34.816 3.584-14.336c35.84-138.752 160.256-236.544 304.128-236.544 148.992 0 276.992 104.448 307.712 250.88l7.168 34.816 2.048 6.144c6.144 15.36 22.528 24.576 39.424 20.992 18.944-4.096 31.232-22.528 27.136-41.472zM320 320C320 214.016 406.016 128 512 128s192 86.016 192 192S617.984 512 512 512 320 425.984 320 320z" p-id="7124" fill="#555555"></path></svg>