<?xml version="1.0" standalone="no"?><!DOCTYPE svg PUBLIC "-//W3C//DTD SVG 1.1//EN" "http://www.w3.org/Graphics/SVG/1.1/DTD/svg11.dtd"><svg t="1730451499001" class="icon" viewBox="0 0 1024 1024" version="1.1" xmlns="http://www.w3.org/2000/svg" p-id="8589" xmlns:xlink="http://www.w3.org/1999/xlink" width="256" height="256"><path d="M1013.234891 604.510903c-14.35514-59.015576-47.850467-98.890966-97.29595-119.626168-92.510903-38.280374-213.732087 0-255.202492 23.925234-62.205607 35.090343-66.990654 126.006231-66.990655 129.196262l-6.380062 57.42056v1.595016c-1.595016 7.975078-25.520249 41.470405-46.255452 68.58567-7.975078 12.760125-6.380062 25.520249 4.785047 36.685358 6.380062 6.380062 14.35514 9.570093 22.330218 9.570093 1.595016 0 3.190031 0 3.190031 1.595016s0 6.380062-1.595015 14.35514v7.975078c0 11.165109 3.190031 17.545171 7.975078 22.330218 0 1.595016-1.595016 3.190031-1.595016 4.785047-1.595016 9.570093 1.595016 19.140187 9.570094 23.925233 9.570093 7.975078 7.975078 15.950156 6.380062 23.925234-1.595016 3.190031-1.595016 6.380062-1.595016 11.165109 1.595016 44.660436 73.370717 51.040498 100.485982 51.040499-3.190031 28.71028 12.760125 46.255452 12.760124 47.850467 1.595016 1.595016 3.190031 3.190031 6.380062 3.190031h228.087228c4.785047 0 7.975078-3.190031 7.975078-7.975078 0-11.165109-1.595016-22.330218-4.785047-33.495327-11.165109-41.470405 1.595016-89.320872 14.35514-122.816199 6.380062-17.545171 15.950156-35.090343 27.115265-52.635514 60.610592-90.915888 31.900312-197.781931 30.305296-202.566979zM480.499688 764.012461c-22.330218-27.115265-46.255452-60.610592-46.255451-68.58567v-1.595015l-6.380063-55.825545c0-3.190031-6.380062-94.105919-66.990654-129.196262-41.470405-23.925234-162.691589-62.205607-255.202492-23.925234-49.445483 20.735202-82.94081 60.610592-97.29595 119.626168-1.595016 4.785047-30.305296 111.65109 28.71028 199.376947 11.165109 15.950156 20.735202 33.495327 27.115265 52.635514 12.760125 33.495327 25.520249 81.345794 14.35514 122.8162-3.190031 11.165109-4.785047 22.330218-4.785046 33.495327 0 4.785047 3.190031 7.975078 7.975077 7.975078h228.087228c1.595016 0 4.785047-1.595016 6.380062-3.190031 0-1.595016 17.545171-19.140187 12.760125-47.850468 27.115265 0 98.890966-6.380062 100.485981-51.040498 0-3.190031 0-6.380062-1.595016-11.165109-3.190031-6.380062-3.190031-15.950156 6.380063-23.925234 7.975078-6.380062 11.165109-15.950156 9.570093-23.925233 0-1.595016-1.595016-3.190031-1.595015-4.785047 4.785047-4.785047 9.570093-11.165109 7.975078-22.330218v-1.595016V826.218069v-1.595016c-1.595016-7.975078-1.595016-11.165109-1.595016-14.35514 0 0 1.595016 0 3.190031-1.595016 9.570093-1.595016 15.950156-4.785047 22.330218-9.570093 14.35514-7.975078 15.950156-20.735202 6.380062-35.090343 0 1.595016 0 0 0 0zM37.085358 301.457944h223.302181l127.601246 71.775701c12.760125 6.380062 28.71028-1.595016 28.71028-15.950156V303.05296h52.635514c11.165109 0 19.140187-7.975078 19.140187-19.140187V19.140187c0-11.165109-7.975078-19.140187-19.140187-19.140187h-430.654205c-12.760125 0-20.735202 7.975078-20.735203 19.140187v264.772586c0 9.570093 7.975078 17.545171 19.140187 17.545171zM376.823676 119.626168c17.545171 0 30.305296 14.35514 30.305296 30.305296 0 17.545171-14.35514 30.305296-30.305296 30.305296-17.545171 0-30.305296-14.35514-30.305296-30.305296 0-15.950156 12.760125-30.305296 30.305296-30.305296z m-124.411215 0c17.545171 0 30.305296 14.35514 30.305296 30.305296 0 17.545171-14.35514 30.305296-30.305296 30.305296-17.545171 0-30.305296-14.35514-30.305296-30.305296-1.595016-15.950156 12.760125-30.305296 30.305296-30.305296zM128.001246 119.626168c15.950156 0 30.305296 14.35514 30.305296 30.305296 0 17.545171-14.35514 30.305296-30.305296 30.305296-17.545171 1.595016-31.900312-12.760125-31.900311-28.71028 0-17.545171 14.35514-31.900312 31.900311-31.900312zM553.870405 398.753894H606.505919v54.23053c0 14.35514 15.950156 23.925234 28.71028 15.950155l127.601246-71.7757h223.302181c11.165109 0 19.140187-7.975078 19.140187-19.140187V114.841121c0-11.165109-7.975078-19.140187-19.140187-19.140186h-430.654205c-11.165109 0-19.140187 7.975078-19.140187 19.140186v264.772586c-1.595016 9.570093 7.975078 19.140187 17.545171 19.140187zM893.608723 215.327103c17.545171 0 30.305296 14.35514 30.305296 30.305296 0 17.545171-14.35514 30.305296-30.305296 30.305296-15.950156 0-30.305296-14.35514-30.305296-30.305296 0-15.950156 14.35514-30.305296 30.305296-30.305296z m-124.411215 0c17.545171 0 30.305296 14.35514 30.305296 30.305296 0 17.545171-14.35514 30.305296-30.305296 30.305296-17.545171 0-30.305296-14.35514-30.305296-30.305296 0-15.950156 14.35514-30.305296 30.305296-30.305296z m-124.411215 0c17.545171 0 30.305296 14.35514 30.305296 30.305296 0 17.545171-14.35514 30.305296-30.305296 30.305296-17.545171 0-30.305296-14.35514-30.305296-30.305296 0-15.950156 12.760125-30.305296 30.305296-30.305296z" fill="#555555" p-id="8590"></path></svg>