<?xml version="1.0" standalone="no"?><!DOCTYPE svg PUBLIC "-//W3C//DTD SVG 1.1//EN" "http://www.w3.org/Graphics/SVG/1.1/DTD/svg11.dtd"><svg t="1729828797030" class="icon" viewBox="0 0 1024 1024" version="1.1" xmlns="http://www.w3.org/2000/svg" p-id="22360" xmlns:xlink="http://www.w3.org/1999/xlink" width="256" height="256"><path d="M512 320a192 192 0 1 1 0 384 192 192 0 0 1 0-384z m0 64a128 128 0 1 0 0 256 128 128 0 0 0 0-256z" fill="#555555" p-id="22361"></path><path d="M81.664 234.432l49.472 41.536a448 448 0 0 0 653.12 591.808l15.104-11.776 11.584-9.664 49.6 41.6-9.792 8.64a458.24 458.24 0 0 1-5.76 4.8l-13.696 10.944-8.128 6.336a511.168 511.168 0 0 1-287.04 104.768L512 1024A512 512 0 0 1 70.976 251.84l10.688-17.408zM512 0a512 512 0 0 1 441.088 772.16l-10.752 17.408-49.472-41.6a448 448 0 0 0-365.44-683.712L512 64a445.952 445.952 0 0 0-272.064 92.032l-13.44 10.688-12.992 11.2-49.536-41.472a514.752 514.752 0 0 1 96.64-70.592 509.184 509.184 0 0 1 230.4-65.408L512 0z" fill="#555555" p-id="22362"></path></svg>