<?xml version="1.0" standalone="no"?><!DOCTYPE svg PUBLIC "-//W3C//DTD SVG 1.1//EN" "http://www.w3.org/Graphics/SVG/1.1/DTD/svg11.dtd"><svg t="1730000998179" class="icon" viewBox="0 0 1024 1024" version="1.1" xmlns="http://www.w3.org/2000/svg" p-id="1480" width="256" height="256" xmlns:xlink="http://www.w3.org/1999/xlink"><path d="M597.0944 927.488c-135.99232 27.63264-282.67008-10.62912-386.8416-114.80064-155.10016-155.15648-165.72928-397.47072-31.87712-563.2512v78.62272c0 23.3984 19.15904 42.50624 42.55744 42.50624a42.61376 42.61376 0 0 0 42.45504-42.50624V158.09024c0-12.7744-4.23936-23.3984-12.7232-29.78816a41.96864 41.96864 0 0 0-29.78304-12.71808H50.91328a42.61376 42.61376 0 0 0-42.50624 42.50624c0 23.3472 19.10272 42.50112 42.50624 42.50112h59.51488C-49.01888 398.25408-34.1504 687.37024 148.64384 872.30976c127.5136 127.46752 303.9232 172.11904 467.6096 138.14784 6.38976-2.1504 14.8736-6.38976 19.16416-10.62912a41.05728 41.05728 0 0 0 0-59.5712c-8.53504-12.71808-25.5488-16.96256-38.26688-12.71808l-0.0512-0.0512z m374.12864-104.12032h-57.3696c155.15648-199.86432 142.4384-488.92416-42.50624-673.8688C752.3072 30.464 590.76608-16.2816 435.55328 4.97152c-10.5728 0-19.10272 4.29056-27.58144 12.7744a41.05728 41.05728 0 0 0 0 59.51488c10.5728 10.62912 25.49248 14.86848 40.35584 10.62912a423.44448 423.44448 0 0 1 361.40544 119.04c155.10528 155.15136 165.7344 397.4656 31.82592 563.2512v-78.62784a42.61376 42.61376 0 0 0-42.44992-42.50112 42.66496 42.66496 0 0 0-42.56256 42.50112v170.02496c0 12.7744 4.29568 23.3984 12.7744 29.78816a42.02496 42.02496 0 0 0 29.78816 12.71808h170.01984a42.61376 42.61376 0 0 0 42.50624-42.50624c0-23.3472-17.01376-38.26688-40.41216-38.26688v0.0512z" p-id="1481" fill="#555555"></path></svg>