<?xml version="1.0" standalone="no"?><!DOCTYPE svg PUBLIC "-//W3C//DTD SVG 1.1//EN" "http://www.w3.org/Graphics/SVG/1.1/DTD/svg11.dtd"><svg t="1730947146663" class="icon" viewBox="0 0 1365 1024" version="1.1" xmlns="http://www.w3.org/2000/svg" p-id="9675" xmlns:xlink="http://www.w3.org/1999/xlink" width="341.25" height="256"><path d="M480.0075 83.2093V489.60765c160.0105 0 352.0135-3.19205 544.0165-3.19205V0c-192.003 25.6084-384.006 51.1928-544.0165 83.2093zM0 492.7997c127.994 0 288.0045-3.19205 415.9985-3.19205V89.5934C288.0045 105.60165 127.994 124.80195 0 147.1943v345.6054z m0 41.61665V883.2138c127.994 19.2003 288.0045 38.4006 415.9985 57.6009V537.6084c-127.994 0-288.0045-3.19205-415.9985-3.19205z m480.0075 409.5904c160.0105 25.6084 352.0135 48.00075 544.0165 79.99325v-480.0075H480.0075v400.01425z" p-id="9676" fill="#555555"></path></svg>