<?xml version="1.0" standalone="no"?><!DOCTYPE svg PUBLIC "-//W3C//DTD SVG 1.1//EN" "http://www.w3.org/Graphics/SVG/1.1/DTD/svg11.dtd"><svg t="1730792933768" class="icon" viewBox="0 0 1024 1024" version="1.1" xmlns="http://www.w3.org/2000/svg" p-id="16517" xmlns:xlink="http://www.w3.org/1999/xlink" width="256" height="256"><path d="M604.736 490.666667a95.402667 95.402667 0 0 0-13.952-31.573334l220.544-220.544a10.666667 10.666667 0 0 0-15.082667-15.082666L576.853333 442.858667A95.488 95.488 0 0 0 533.333333 419.626667V128h360.448L1024 490.666667H604.736zM490.666667 419.328c-15.936 3.498667-31.146667 11.093333-43.989334 22.826667L217.216 212.650667a10.666667 10.666667 0 0 0-15.082667 15.082666l230.442667 230.442667A95.402667 95.402667 0 0 0 418.005333 490.666667H128V130.218667L490.666667 0v419.328z m42.666666 187.221333a95.402667 95.402667 0 0 0 32.746667-14.570666L785.450667 811.306667a10.666667 10.666667 0 0 0 15.082666-15.082667L582.186667 577.92A95.466667 95.466667 0 0 0 605.226667 533.333333H896v360.448L533.333333 1024V606.549333zM417.514667 533.333333c2.517333 11.648 7.210667 22.933333 14.08 33.173334L212.693333 785.450667a10.666667 10.666667 0 0 0 15.082667 15.082666L445.44 582.848c13.077333 12.373333 28.757333 20.352 45.226667 23.978667V896H130.218667L0 533.333333h417.514667z" fill="#3E97DF" p-id="16518"></path></svg>