<?xml version="1.0" standalone="no"?><!DOCTYPE svg PUBLIC "-//W3C//DTD SVG 1.1//EN"
        "http://www.w3.org/Graphics/SVG/1.1/DTD/svg11.dtd">
<svg t="1730946674080" class="icon" viewBox="0 0 1024 1024" version="1.1" xmlns="http://www.w3.org/2000/svg" p-id="8569"
     xmlns:xlink="http://www.w3.org/1999/xlink" width="256" height="256">
    <path d="M512.001359 502.484707 512.001359 502.484707c-16.127865 0-29.201601-13.073736-29.201601-29.201601L482.799758 122.868887c0-16.127865 13.073736-29.201601 29.201601-29.201601l0 0c16.127865 0 29.201601 13.073736 29.201601 29.201601l0 350.414419C541.201761 489.409972 528.128225 502.484707 512.001359 502.484707zM658.006967 162.703279 658.006967 162.703279c0 11.363296 6.780603 21.379705 17.034651 26.276784 143.536282 68.556319 237.599508 224.598122 212.535101 398.736457-24.232171 168.356654-163.09702 302.279455-332.13801 321.153658-228.677157 25.533089-423.05317-153.55389-423.05317-377.185069 0-150.989229 88.641701-281.609469 216.591151-342.712841 10.244055-4.891484 17.018062-14.899098 17.018062-26.251601l0 0c0-21.286568-22.299481-35.568085-41.530642-26.440873C175.115168 207.160937 72.1174 359.712707 74.008518 536.468267c2.450738 229.133647 188.050901 422.028065 416.94711 432.741002 251.480296 11.768421 459.063755-188.634706 459.063755-437.525158 0-174.807481-102.582649-325.312638-250.701824-395.509445C680.161946 127.09782 658.006967 141.505451 658.006967 162.703279z"
          fill="#555555" p-id="8570"></path>
</svg>