<?xml version="1.0" standalone="no"?><!DOCTYPE svg PUBLIC "-//W3C//DTD SVG 1.1//EN"
        "http://www.w3.org/Graphics/SVG/1.1/DTD/svg11.dtd">
<svg t="1730946539037" class="icon" viewBox="0 0 1024 1024" version="1.1" xmlns="http://www.w3.org/2000/svg" p-id="6618"
     xmlns:xlink="http://www.w3.org/1999/xlink" width="10" height="10">
    <path d="M309.597091 95.418182a23.272727 23.272727 0 0 1 20.224 41.890909C186.228364 206.568727 93.090909 351.650909 93.090909 513.396364 93.090909 743.959273 280.622545 930.909091 512 930.909091s418.909091-186.949818 418.909091-417.512727c0-161.373091-92.695273-306.152727-235.729455-375.598546a23.272727 23.272727 0 0 1 20.317091-41.867636C874.426182 173.079273 977.454545 334.010182 977.454545 513.396364 977.454545 769.698909 769.047273 977.454545 512 977.454545S46.545455 769.698909 46.545455 513.396364C46.545455 333.568 150.109091 172.311273 309.597091 95.418182zM488.727273 69.818182a23.272727 23.272727 0 0 1 46.545454 0v442.181818a23.272727 23.272727 0 0 1-46.545454 0V69.818182z"
          fill="#555555" p-id="6619"></path>
</svg>