<?xml version="1.0" standalone="no"?><!DOCTYPE svg PUBLIC "-//W3C//DTD SVG 1.1//EN" "http://www.w3.org/Graphics/SVG/1.1/DTD/svg11.dtd"><svg t="1730946216850" class="icon" viewBox="0 0 1024 1024" version="1.1" xmlns="http://www.w3.org/2000/svg" p-id="2396" xmlns:xlink="http://www.w3.org/1999/xlink" width="256" height="256"><path d="M894.49599969 510.49599969c0 105.6-35.20000031 195.19999969-111.99999938 272.00000062-73.60000031 73.60000031-163.2 112.00000031-268.8 111.99999938-108.79999969 0-198.40000031-38.4-272.00000062-111.99999938-76.8-76.8-112.00000031-166.39999969-111.99999938-272.00000062s35.20000031-195.19999969 111.99999938-268.8c73.60000031-76.8 163.2-115.2 272.00000062-111.99999938h25.59999938c6.40000031 0 16.00000031-3.19999969 22.40000062-9.6s9.6-16.00000031 9.6-22.40000062c0-9.6-3.19999969-16.00000031-9.6-22.39999969s-16.00000031-9.6-22.40000062-9.6h-25.59999938c-124.8-3.19999969-230.4 41.59999969-320.00000062 131.20000031-86.4 86.4-131.20000031 192-127.99999969 313.59999938-3.19999969 124.8 41.59999969 227.20000031 127.99999969 316.8 89.59999969 86.4 195.19999969 131.20000031 320.00000062 131.20000031 121.60000031 0 227.20000031-44.80000031 313.59999938-131.20000031 89.59999969-89.59999969 131.20000031-192 131.20000031-316.8 0-112.00000031-35.20000031-211.2-108.79999969-291.19999969-6.40000031-9.6-16.00000031-12.79999969-22.40000062-12.79999969-9.6 0-16.00000031 3.19999969-22.39999969 9.6-9.6 6.40000031-12.79999969 12.79999969-12.79999969 22.39999969 0 6.40000031 3.19999969 16.00000031 9.6 22.39999969 60.79999969 70.39999969 92.80000031 156.79999969 92.79999938 249.6z" p-id="2397" fill="#555555"></path><path d="M443.29599969 305.696c-9.6-6.40000031-16.00000031-9.6-22.39999969-6.40000031-9.6 0-16.00000031 3.19999969-22.39999969 9.6-3.19999969 6.40000031-6.40000031 12.79999969-6.40000031 22.40000062v361.59999938c0 9.6 3.19999969 16.00000031 9.6 22.40000062 3.19999969 6.40000031 12.79999969 9.6 19.2 9.6 9.6 0 16.00000031 0 22.39999969-6.40000031l246.40000031-188.80000031c3.19999969-6.40000031 6.40000031-9.6 9.6-15.99999938v-19.2c-3.19999969-9.6-6.40000031-12.79999969-12.79999969-16.00000031l-243.20000062-172.8z m172.8 198.40000031l-159.99999938 124.8v-236.80000031l159.99999938 112.00000031z" p-id="2398" fill="#555555"></path></svg>