<?xml version="1.0" standalone="no"?><!DOCTYPE svg PUBLIC "-//W3C//DTD SVG 1.1//EN" "http://www.w3.org/Graphics/SVG/1.1/DTD/svg11.dtd"><svg t="1730947199942" class="icon" viewBox="0 0 1024 1024" version="1.1" xmlns="http://www.w3.org/2000/svg" p-id="10813" xmlns:xlink="http://www.w3.org/1999/xlink" width="256" height="256"><path d="M884.82702222 74.54962725a124.27567408 124.27567408 0 0 1 124.27567408 124.27567408v497.1026963a124.27567408 124.27567408 0 0 1-124.27567408 124.27567407h-331.40179753v46.39625166h-82.85044938v-46.39625166h-331.40179753a124.27567408 124.27567408 0 0 1-124.27567408-124.27567407v-497.1026963a124.27567408 124.27567408 0 0 1 124.27567408-124.27567408h745.65404444zM586.56540445 289.54654341a34.3829365 34.3829365 0 0 0 6.62803594 48.21896154 134.63198025 134.63198025 0 1 1-162.88398348 0.41425224 34.3829365 34.3829365 0 0 0-41.75662649-54.68129658 203.48070368 203.48070368 0 1 0 246.23153556-0.57995314 34.3829365 34.3829365 0 0 0-48.30181199 6.62803594zM512 246.05005748a33.3887311 33.3887311 0 0 0-33.3887311 33.30588065v133.3892235a33.3887311 33.3887311 0 0 0 66.7774622 0v-133.3892235A33.3887311 33.3887311 0 0 0 512 246.13290793zM302.22266217 949.45037275h419.55467566c21.4582664 0 38.77401031-17.39859437 38.77401032-38.77401032v-5.38527921a38.77401031 38.77401031 0 0 0-38.77401032-38.69115986H302.22266217a38.77401031 38.77401031 0 0 0-38.77401032 38.69115986v5.38527921c0 21.37541595 17.39859437 38.77401031 38.77401032 38.77401032z" fill="#555555" p-id="10814"></path></svg>