<?xml version="1.0" standalone="no"?><!DOCTYPE svg PUBLIC "-//W3C//DTD SVG 1.1//EN" "http://www.w3.org/Graphics/SVG/1.1/DTD/svg11.dtd"><svg t="1731762704430" class="icon" viewBox="0 0 1024 1024" version="1.1" xmlns="http://www.w3.org/2000/svg" p-id="8853" xmlns:xlink="http://www.w3.org/1999/xlink" width="256" height="256"><path d="M512 81.188571A430.811429 430.811429 0 1 0 942.811429 512 431.542857 431.542857 0 0 0 512 81.188571z m0 797.915429a366.445714 366.445714 0 1 1 365.714286-367.177143 368.347429 368.347429 0 0 1-365.714286 367.177143z m0 0" fill="#555555" p-id="8854"></path><path d="M512 961.097143A449.097143 449.097143 0 1 1 961.097143 512 449.609143 449.609143 0 0 1 512 961.097143zM512 99.474286A412.525714 412.525714 0 1 0 924.525714 512 412.964571 412.964571 0 0 0 512 99.474286z m0 797.915428a384.731429 384.731429 0 1 1 384.073143-385.462857A385.828571 385.828571 0 0 1 512 897.389714zM512 164.425143a348.16 348.16 0 1 0 347.501714 347.501714A348.598857 348.598857 0 0 0 512 164.498286z" fill="#555555" p-id="8855"></path><path d="M720.384 577.024L541.988571 517.339429V262.217143a34.084571 34.084571 0 0 0-68.096 0v278.674286a31.963429 31.963429 0 0 0 19.602286 31.378285l197.997714 66.267429a53.613714 53.613714 0 0 0 14.628572 2.56 47.542857 47.542857 0 0 0 13.092571-1.316572 32.621714 32.621714 0 0 0 18.285715-17.042285 36.571429 36.571429 0 0 0 1.316571-26.185143 31.378286 31.378286 0 0 0-18.432-19.529143z m0 0" fill="#555555" p-id="8856"></path><path d="M705.974857 659.675429a63.049143 63.049143 0 0 1-17.188571-2.706286l-3.072-0.877714-200.411429-67.218286a50.029714 50.029714 0 0 1-29.696-48.493714v-277.942858a52.370286 52.370286 0 0 1 104.667429 0v241.956572l167.350857 56.100571a49.664 49.664 0 0 1 28.379428 30.573715 55.222857 55.222857 0 0 1-1.901714 39.131428v0.804572a50.761143 50.761143 0 0 1-29.257143 26.404571h-1.170285a64.804571 64.804571 0 0 1-17.700572 2.267429z m-9.216-38.4h1.389714a29.915429 29.915429 0 0 0 7.826286 1.462857 32.621714 32.621714 0 0 0 7.826286-0.585143 15.286857 15.286857 0 0 0 6.948571-7.314286 18.285714 18.285714 0 0 0 0.585143-12.8 12.946286 12.946286 0 0 0-7.314286-8.192l-190.171428-63.634286V261.924571a15.725714 15.725714 0 0 0-31.524572 0v280.722286c-0.658286 6.509714 5.558857 10.898286 8.630858 12.580572z" fill="#555555" p-id="8857"></path></svg>