<?xml version="1.0" standalone="no"?><!DOCTYPE svg PUBLIC "-//W3C//DTD SVG 1.1//EN" "http://www.w3.org/Graphics/SVG/1.1/DTD/svg11.dtd"><svg t="1730013898341" class="icon" viewBox="0 0 1024 1024" version="1.1" xmlns="http://www.w3.org/2000/svg" p-id="3251" width="256" height="256" xmlns:xlink="http://www.w3.org/1999/xlink"><path d="M594.346667 543.146667a228.821333 228.821333 0 0 0 232.021333-228.906667C826.368 188.714667 723.072 85.333333 594.304 85.333333c-101.802667 0-193.109333 66.474667-223.061333 163.925334-28.416 96 10.496 200.874667 95.829333 256.981333a343.253333 343.253333 0 0 0-215.552 314.581333c0 17.749333 13.44 31.018667 31.402667 31.018667a30.506667 30.506667 0 0 0 31.445333-31.018667c0-153.6 125.738667-277.632 279.936-277.632z m-270.976-33.92c-106.282667 16.213333-187.136 107.776-187.136 217.088a26.026667 26.026667 0 0 1-25.472 25.088 25.088 25.088 0 0 1-25.429334-25.088c0-110.762667 68.864-211.2 173.653334-252.586667-68.864-44.288-100.266667-128.426667-76.373334-205.226667 22.485333-72.405333 86.869333-124.074667 164.693334-130.005333a328.576 328.576 0 0 0-35.925334 59.093333c-50.901333 19.2-86.826667 67.925333-86.826666 124.032 0 60.586667 41.898667 113.749333 101.802666 128.512 14.933333 1.493333 28.458667 13.269333 28.458667 29.525334 0 16.256-13.482667 29.568-31.445333 29.568z m272.426666-31.061334c-92.8 0-167.68-72.362667-169.130666-163.925333-1.493333-59.093333 29.909333-115.2 83.84-146.218667a168.106667 168.106667 0 0 1 170.666666 0c52.352 29.525333 85.333333 85.632 83.797334 146.218667-1.493333 90.069333-76.373333 163.925333-169.173334 163.925333zM938.666667 822.314667c1.493333-106.325333-49.408-206.762667-134.698667-270.293334a31.872 31.872 0 0 0-44.928 7.381334c-8.96 13.312-7.509333 32.512 5.973333 42.837333a271.573333 271.573333 0 0 1 110.805334 220.074667c0 16.213333 13.44 31.018667 31.402666 31.018666a30.506667 30.506667 0 0 0 31.445334-31.018666z m-353.28-225.962667a26.453333 26.453333 0 0 1 37.418666 0 25.6 25.6 0 0 1 0 36.906667 26.453333 26.453333 0 0 1-37.418666 0 25.6 25.6 0 0 1 0-36.906667z m-2.986667 70.912c13.44 7.381333 31.445333 7.381333 44.885333 0 19.456 41.344 44.928 98.944 44.928 124.032 0 36.949333-67.370667 62.037333-67.370666 62.037333s-67.370667-25.088-67.370667-62.037333c0-25.088 25.472-82.688 44.928-124.032z" p-id="3252" fill="#555555"></path></svg>