<?xml version="1.0" standalone="no"?><!DOCTYPE svg PUBLIC "-//W3C//DTD SVG 1.1//EN" "http://www.w3.org/Graphics/SVG/1.1/DTD/svg11.dtd"><svg t="1730078740571" class="icon" viewBox="0 0 1024 1024" version="1.1" xmlns="http://www.w3.org/2000/svg" p-id="7532" xmlns:xlink="http://www.w3.org/1999/xlink" width="256" height="256"><path d="M0.512 512c0 282.624 228.864 511.488 511.488 511.488s511.488-228.864 511.488-511.488S794.624 0.512 512 0.512 0.512 229.376 0.512 512z" fill="#6DC644" p-id="7533"></path><path d="M605.696 427.008c6.144 0 12.288 0.512 17.92 1.024-16.384-75.776-97.28-131.584-189.44-131.584-102.912 0-187.392 70.144-187.392 159.744 0 51.712 28.16 93.696 75.264 126.464l-18.944 56.32 65.536-32.768c23.552 4.608 42.496 9.216 65.536 9.216 5.632 0 11.776-0.512 17.408-0.512-3.584-12.288-5.632-25.6-5.632-39.424 0.512-82.432 70.656-148.48 159.744-148.48z m-100.864-51.2c14.336 0 23.552 9.216 23.552 23.552 0 13.824-9.216 23.552-23.552 23.552-13.824 0-28.16-9.216-28.16-23.552s14.336-23.552 28.16-23.552zM373.76 422.912c-13.824 0-28.16-9.216-28.16-23.552s14.336-23.552 28.16-23.552 23.552 9.216 23.552 23.552c0 13.824-9.728 23.552-23.552 23.552z m403.456 150.016c0-74.752-75.264-136.192-159.232-136.192-89.088 0-159.744 60.928-159.744 136.192s70.144 136.192 159.744 136.192c18.432 0 37.376-4.608 56.32-9.216l51.2 28.16-14.336-47.104c37.888-28.16 66.048-65.536 66.048-108.032z m-211.456-23.552c-9.216 0-18.944-9.216-18.944-18.944 0-9.216 9.216-18.944 18.944-18.944 14.336 0 23.552 9.216 23.552 18.944 0 9.728-9.216 18.944-23.552 18.944z m103.424 0c-9.216 0-18.432-9.216-18.432-18.944 0-9.216 9.216-18.944 18.432-18.944 13.824 0 23.552 9.216 23.552 18.944 0 9.728-9.728 18.944-23.552 18.944z" fill="#FFFFFF" p-id="7534"></path></svg>