<?xml version="1.0" standalone="no"?><!DOCTYPE svg PUBLIC "-//W3C//DTD SVG 1.1//EN" "http://www.w3.org/Graphics/SVG/1.1/DTD/svg11.dtd"><svg t="1730354688922" class="icon" viewBox="0 0 1024 1024" version="1.1" xmlns="http://www.w3.org/2000/svg" p-id="5053" xmlns:xlink="http://www.w3.org/1999/xlink" width="256" height="256"><path d="M110.933333 106.020202h614.917172c38.787879 0 70.206061 31.418182 70.206061 70.206061v392.274747c0 38.787879-31.418182 70.206061-70.206061 70.206061H407.40202L228.20202 800.323232V638.965657H110.933333c-38.787879 0-70.206061-31.418182-70.20606-70.206061V176.226263c0-38.787879 31.418182-70.206061 70.20606-70.206061m714.214142 497.00202V260.266667h87.919192c38.787879 0 70.206061 29.478788 70.20606 68.266666v343.531313c0 38.787879-31.418182 62.448485-70.20606 62.448485h-117.39798l0.258586 160.323233L619.313131 734.383838H483.943434c-38.787879 0-70.206061-23.660606-70.20606-62.448484 0 0 314.440404-1.810101 343.919192-1.810101 29.349495 0.258586 67.490909-37.624242 67.490909-67.103031m0 0zM479.030303 312.630303c0-46.933333-36.331313-85.074747-80.937374-85.074747-22.109091 0-42.925253 9.69697-57.923232 26.117171-15.127273-16.420202-35.943434-26.117172-58.052525-26.117171-44.735354 0-81.066667 38.141414-81.066667 85.074747 0 1.551515 0.129293 2.973737 0.258586 4.137374v1.163636c0 8.274747 1.939394 17.454545 5.947475 27.151515 0.129293 0.387879 0.258586 0.646465 0.387878 1.034344 24.694949 59.991919 119.725253 128.905051 123.733334 132.008081 2.456566 1.939394 5.430303 2.844444 8.533333 2.844444 3.10303 0 6.076768-1.034343 8.533333-2.973737 3.490909-2.715152 84.428283-61.80202 116.622223-117.656566 1.163636-1.939394 2.068687-3.749495 2.973737-5.30101l0.775758-1.551515 0.129293-0.258586c0.129293-0.129293 0.258586-0.387879 0.387878-0.517172 1.939394-3.749495 3.490909-7.369697 4.654546-10.731313 3.361616-8.921212 5.042424-16.678788 5.042424-24.048485v-1.551515c-0.129293-0.905051 0-2.19798 0-3.749495z m123.474748 81.19596c0-21.850505-16.937374-39.563636-37.624243-39.563637-10.214141 0-19.911111 4.525253-26.892929 12.153536-6.981818-7.628283-16.678788-12.153535-26.89293-12.153536-20.686869 0-37.624242 17.713131-37.624242 39.563637 0 0.775758 0 1.422222 0.129293 1.939394v0.517171c0 3.878788 0.905051 8.145455 2.715152 12.541414 0 0.129293 0.129293 0.258586 0.129292 0.517172 11.507071 27.79798 55.59596 59.862626 57.406061 61.284849 1.163636 0.905051 2.585859 1.292929 4.008081 1.292929s2.844444-0.517172 4.008081-1.422222c1.551515-1.292929 39.175758-28.70303 54.173737-54.690909 0.517172-0.905051 1.034343-1.680808 1.422222-2.456566 0.129293-0.258586 0.258586-0.517172 0.387879-0.646465v-0.129293c0-0.129293 0.129293-0.129293 0.129293-0.258585 0.905051-1.810101 1.551515-3.361616 2.19798-5.042425 1.551515-4.137374 2.327273-7.757576 2.327273-11.248485v-0.646464c-0.129293-0.258586 0-0.775758 0-1.551515z" fill="#555555" p-id="5054"></path></svg>